<svg xmlns="http://www.w3.org/2000/svg" viewBox="0 0 48 48" width="48" height="48">
  <rect width="48" height="48" rx="10" fill="#070C1D"/>
  <g fill="#F8B528">
    <rect x="22.5" y="4" width="3" height="6" rx="1.5"/>
    <rect x="22.5" y="4" width="3" height="6" rx="1.5" transform="rotate(45 24 24)"/>
    <rect x="22.5" y="4" width="3" height="6" rx="1.5" transform="rotate(90 24 24)"/>
    <rect x="22.5" y="4" width="3" height="6" rx="1.5" transform="rotate(135 24 24)"/>
    <rect x="22.5" y="4" width="3" height="6" rx="1.5" transform="rotate(180 24 24)"/>
    <rect x="22.5" y="4" width="3" height="6" rx="1.5" transform="rotate(225 24 24)"/>
    <rect x="22.5" y="4" width="3" height="6" rx="1.5" transform="rotate(270 24 24)"/>
    <rect x="22.5" y="4" width="3" height="6" rx="1.5" transform="rotate(315 24 24)"/>
  </g>
  <circle cx="24" cy="24" r="15" fill="none" stroke="#F8B528" stroke-width="2.5"/>
  <circle cx="24" cy="24" r="6" fill="#E11873"/>
  <circle cx="24" cy="24" r="2.6" fill="#fff"/>
</svg>
